<svg xmlns="http://www.w3.org/2000/svg" xmlns:xlink="http://www.w3.org/1999/xlink" width="800" zoomAndPan="magnify" viewBox="0 0 600 599.999999" height="800" preserveAspectRatio="xMidYMid meet" version="1.0"><defs><clipPath id="930d0552bf"><path d="M 0 0 L 600 0 L 600 597.75 L 0 597.75 Z M 0 0 " clip-rule="nonzero"/></clipPath></defs><g clip-path="url(#930d0552bf)"><path fill="#ffffff" d="M 300.128906 0.203125 C 134.34375 0.203125 0 134.546875 0 300.332031 C 0 449.230469 108.617188 572.917969 250.757812 596.304688 L 250.757812 392.839844 L 174.359375 392.839844 L 174.359375 303.710938 L 250.757812 303.710938 L 250.757812 239.007812 C 250.757812 168.847656 307.664062 121.296875 377.824219 121.296875 C 409.007812 121.296875 428.496094 125.972656 428.496094 125.972656 L 428.496094 200.808594 L 377.824219 200.808594 C 356.777344 200.808594 339.628906 217.960938 339.628906 239.007812 L 339.628906 303.710938 L 421.480469 303.710938 L 410.046875 392.839844 L 339.628906 392.839844 L 339.628906 597.605469 C 486.445312 578.117188 599.738281 452.347656 599.738281 300.332031 C 600 134.546875 465.65625 0.203125 300.128906 0.203125 Z M 300.128906 0.203125 " fill-opacity="1" fill-rule="nonzero"/></g></svg>