<svg xmlns="http://www.w3.org/2000/svg" xmlns:xlink="http://www.w3.org/1999/xlink" width="800" zoomAndPan="magnify" viewBox="0 0 600 599.999999" height="800" preserveAspectRatio="xMidYMid meet" version="1.0"><path fill="#ffffff" d="M 300 233.507812 C 263.375 233.507812 233.507812 263.375 233.507812 300 C 233.507812 336.625 263.375 366.492188 300 366.492188 C 336.625 366.492188 366.492188 336.625 366.492188 300 C 366.492188 263.375 336.625 233.507812 300 233.507812 Z M 300 233.507812 " fill-opacity="1" fill-rule="nonzero"/><path fill="#ffffff" d="M 389.351562 136.882812 L 210.648438 136.882812 C 170.128906 136.882812 136.882812 169.871094 136.882812 210.648438 L 136.882812 389.351562 C 136.882812 429.871094 169.871094 463.117188 210.648438 463.117188 L 389.351562 463.117188 C 429.871094 463.117188 463.117188 430.128906 463.117188 389.351562 L 463.117188 210.648438 C 462.855469 169.871094 429.871094 136.882812 389.351562 136.882812 Z M 300 400 C 244.675781 400 199.742188 355.066406 199.742188 299.742188 C 199.742188 244.414062 244.675781 199.480469 300 199.480469 C 355.324219 199.480469 400.257812 244.414062 400.257812 299.742188 C 400 355.066406 355.066406 400 300 400 Z M 407.273438 216.363281 C 394.027344 216.363281 383.117188 205.453125 383.117188 192.207031 C 383.117188 178.960938 394.027344 168.050781 407.273438 168.050781 C 420.519531 168.050781 431.429688 178.960938 431.429688 192.207031 C 431.429688 205.714844 420.777344 216.363281 407.273438 216.363281 Z M 407.273438 216.363281 " fill-opacity="1" fill-rule="nonzero"/><path fill="#ffffff" d="M 300 0 C 134.285156 0 0 134.285156 0 300 C 0 465.714844 134.285156 600 300 600 C 465.714844 600 600 465.714844 600 300 C 599.738281 134.285156 465.453125 0 300 0 Z M 496.625 389.351562 C 496.625 448.570312 448.3125 496.882812 389.089844 496.882812 L 210.648438 496.882812 C 151.429688 496.882812 103.117188 448.570312 103.117188 389.351562 L 103.117188 210.648438 C 103.117188 151.429688 151.429688 103.117188 210.648438 103.117188 L 389.351562 103.117188 C 448.570312 103.117188 496.882812 151.429688 496.882812 210.648438 L 496.882812 389.351562 Z M 496.625 389.351562 " fill-opacity="1" fill-rule="nonzero"/></svg>