<svg xmlns="http://www.w3.org/2000/svg" xmlns:xlink="http://www.w3.org/1999/xlink" width="800" zoomAndPan="magnify" viewBox="0 0 600 599.999999" height="800" preserveAspectRatio="xMidYMid meet" version="1.0"><defs><clipPath id="dfc761a2c3"><path d="M 0 18.75 L 600 18.75 L 600 600 L 0 600 Z M 0 18.75 " clip-rule="nonzero"/></clipPath></defs><g clip-path="url(#dfc761a2c3)"><path fill="#000000" d="M 271.660156 574.105469 L 271.660156 537.402344 L 234.957031 537.402344 L 234.957031 574.105469 Z M 234.957031 527.164062 L 271.660156 527.164062 L 271.660156 490.460938 L 234.957031 490.460938 Z M 281.898438 490.460938 L 281.898438 527.164062 L 318.601562 527.164062 L 318.601562 490.460938 Z M 318.601562 574.105469 L 318.601562 537.402344 L 281.898438 537.402344 L 281.898438 574.105469 Z M 82.894531 101.695312 L 82.894531 470.609375 L 276.777344 276.726562 L 600 599.949219 L 482.773438 599.949219 L 276.777344 393.957031 C 208.363281 462.496094 139.824219 530.910156 71.285156 599.449219 L 70.785156 599.949219 L 0 599.949219 L 0 18.800781 L 387.765625 18.800781 C 443.570312 18.800781 496.503906 41.023438 535.953125 80.347656 C 575.40625 119.800781 597.503906 172.734375 597.503906 228.539062 C 597.503906 284.34375 575.28125 337.277344 535.953125 376.726562 C 524.46875 388.214844 511.609375 398.449219 497.753906 407.066406 L 496.628906 407.816406 L 435.082031 346.265625 L 437.453125 345.269531 C 452.308594 338.902344 465.917969 329.664062 477.402344 318.175781 C 501.25 294.332031 514.730469 262.371094 514.730469 228.664062 C 514.730469 194.957031 501.25 162.871094 477.402344 139.027344 C 453.558594 115.179688 421.597656 101.695312 387.890625 101.695312 Z M 82.894531 101.695312 " fill-opacity="1" fill-rule="evenodd"/></g></svg>